<?xml version="1.0" encoding="UTF-8"?>
<svg id="Layer_1" data-name="Layer 1" xmlns="http://www.w3.org/2000/svg" width="1235.7" height="256.64" xmlns:xlink="http://www.w3.org/1999/xlink" viewBox="0 0 1235.7 256.64">
  <defs>
    <clipPath id="clippath">
      <path d="M34.85,58.24c-12.37,0-22.4,10.05-22.4,22.45s10.02,22.45,22.4,22.45h134.62c12.37,0,22.39-10.05,22.39-22.45s-10.03-22.45-22.39-22.45H34.85Z" fill="none"/>
    </clipPath>
    <linearGradient id="Degradado_sin_nombre_3" data-name="Degradado sin nombre 3" x1="128.29" y1="486.43" x2="130.72" y2="486.43" gradientTransform="translate(9636.85 -35732.39) rotate(-180) scale(73.62 -73.62)" gradientUnits="userSpaceOnUse">
      <stop offset="0" stop-color="#09689d"/>
      <stop offset="1" stop-color="#2bb2cc"/>
    </linearGradient>
    <clipPath id="clippath-1">
      <path d="M157.37,61.69l-110.46,45.04c-10.43,6.6-13.54,20.43-6.96,30.88,6.58,10.45,20.38,13.58,30.8,6.97l110.46-45.03c10.43-6.6,13.54-20.43,6.96-30.89-4.25-6.74-11.49-10.43-18.9-10.43-4.08,0-8.2,1.12-11.9,3.46" fill="none"/>
    </clipPath>
    <linearGradient id="Degradado_sin_nombre_6" data-name="Degradado sin nombre 6" x1="129.35" y1="484.81" x2="131.79" y2="484.81" gradientTransform="translate(-4149.48 -30428.23) rotate(156.98) scale(61.4 -61.4)" gradientUnits="userSpaceOnUse">
      <stop offset="0" stop-color="#83bd8c"/>
      <stop offset=".25" stop-color="#5ba379"/>
      <stop offset=".68" stop-color="#1b785b"/>
      <stop offset=".88" stop-color="#026850"/>
      <stop offset="1" stop-color="#026850"/>
    </linearGradient>
    <clipPath id="clippath-2">
      <path d="M58.9,103.14c-12.37,0-22.39,10.05-22.39,22.45s10.02,22.45,22.39,22.45h110.58c12.37,0,22.39-10.05,22.39-22.45s-10.03-22.45-22.39-22.45H58.9Z" fill="none"/>
    </clipPath>
    <linearGradient id="Degradado_sin_nombre_9" data-name="Degradado sin nombre 9" x1="131.39" y1="487.9" x2="133.83" y2="487.9" gradientTransform="translate(5945.19 -21438.48) rotate(-180) scale(44.2 -44.2)" gradientUnits="userSpaceOnUse">
      <stop offset="0" stop-color="#e3541d"/>
      <stop offset=".16" stop-color="#e35921"/>
      <stop offset=".37" stop-color="#e6692d"/>
      <stop offset=".6" stop-color="#e98342"/>
      <stop offset=".85" stop-color="#efa75f"/>
      <stop offset="1" stop-color="#f3c274"/>
    </linearGradient>
    <clipPath id="clippath-3">
      <path d="M157.37,106.6l-88.95,45.75c-10.42,6.6-13.54,20.43-6.95,30.88,6.58,10.45,20.37,13.58,30.8,6.97l88.95-45.75c10.43-6.6,13.54-20.43,6.96-30.88-4.25-6.75-11.49-10.44-18.9-10.44-4.08,0-8.2,1.12-11.9,3.46" fill="none"/>
    </clipPath>
    <linearGradient id="Degradado_sin_nombre_8" data-name="Degradado sin nombre 8" x1="130.79" y1="484.55" x2="133.23" y2="484.55" gradientTransform="translate(-5939.66 -24052.48) rotate(150.72) scale(49.69 -49.69)" gradientUnits="userSpaceOnUse">
      <stop offset="0" stop-color="#f09b1b"/>
      <stop offset="1" stop-color="#a74f40"/>
    </linearGradient>
  </defs>
  <g>
    <path d="M232.13,141.76c-4.53-4.11-6.79-10.29-6.79-18.52v-25.07h-11.05v-19.77h11.05v-13.61l22.6-2.27v15.87h15.74v19.77h-15.74v21.92c0,3.19.78,5.44,2.35,6.74,1.57,1.3,3.96,1.95,7.17,1.95,2.03,0,4.1-.13,6.22-.38v18.14c-4.82.92-9.06,1.39-12.7,1.39-8.04,0-14.33-2.06-18.85-6.17Z" fill="#f09b1b"/>
    <path d="M361.94,143.33c-4.99-3.07-8.87-7.24-11.62-12.54-2.75-5.29-4.13-11.17-4.13-17.64s1.42-12.6,4.25-17.89c2.83-5.29,6.75-9.43,11.74-12.41,4.99-2.98,10.66-4.47,17.01-4.47,6.68,0,12.78,1.81,18.28,5.42v-25.45h22.47v89.2h-18.92l-.89-7.06c-5.93,4.96-12.91,7.43-20.95,7.43-6.52,0-12.27-1.53-17.27-4.6ZM372.54,123.68c2.75,2.73,6.28,4.09,10.6,4.09s7.72-1.36,10.47-4.09c2.75-2.73,4.13-6.24,4.13-10.52s-1.38-7.79-4.13-10.52c-2.75-2.73-6.24-4.09-10.47-4.09s-7.85,1.37-10.6,4.09c-2.75,2.73-4.13,6.24-4.13,10.52s1.37,7.79,4.13,10.52Z" fill="#f09b1b"/>
    <path d="M442.23,143.59c-5.63-2.98-10.03-7.14-13.2-12.47-3.17-5.33-4.76-11.32-4.76-17.95s1.59-12.72,4.76-18.02c3.17-5.29,7.55-9.43,13.14-12.41,5.59-2.98,11.93-4.47,19.04-4.47s13.46,1.49,19.04,4.47c5.59,2.98,9.97,7.12,13.14,12.41,3.17,5.29,4.76,11.3,4.76,18.02s-1.59,12.62-4.76,17.95c-3.17,5.33-7.58,9.49-13.2,12.47-5.63,2.98-11.96,4.47-18.98,4.47s-13.35-1.49-18.98-4.47ZM450.87,123.68c2.75,2.73,6.2,4.09,10.35,4.09s7.7-1.36,10.41-4.09c2.71-2.73,4.06-6.24,4.06-10.52s-1.35-7.79-4.06-10.52c-2.71-2.73-6.18-4.09-10.41-4.09s-7.6,1.37-10.35,4.09c-2.75,2.73-4.13,6.24-4.13,10.52s1.37,7.79,4.13,10.52Z" fill="#f09b1b"/>
    <path d="M520.95,79.78h20.69l.76,7.43c2.29-2.77,5.18-4.91,8.7-6.43,3.51-1.51,7.38-2.27,11.62-2.27,4.74,0,8.84.93,12.31,2.77,3.47,1.85,6.18,4.58,8.13,8.19,6.09-7.31,13.97-10.96,23.61-10.96,8.21,0,14.51,2.48,18.92,7.43,4.4,4.96,6.6,12.09,6.6,21.42v40.2h-22.47v-37.55c0-3.69-.89-6.55-2.67-8.57-1.78-2.02-4.28-3.02-7.49-3.02-3.64,0-6.52,1.05-8.63,3.15-2.12,2.1-3.17,4.91-3.17,8.44v37.55h-22.47v-37.55c0-3.69-.87-6.55-2.6-8.57-1.74-2.02-4.25-3.02-7.55-3.02-3.64,0-6.52,1.05-8.63,3.15-2.12,2.1-3.17,4.91-3.17,8.44v37.55h-22.47v-67.79Z" fill="#fff"/>
    <path d="M654.57,143.59c-5.63-2.98-10.03-7.14-13.2-12.47-3.17-5.33-4.76-11.32-4.76-17.95s1.59-12.72,4.76-18.02c3.17-5.29,7.55-9.43,13.14-12.41,5.59-2.98,11.93-4.47,19.04-4.47s13.46,1.49,19.04,4.47c5.59,2.98,9.97,7.12,13.14,12.41,3.17,5.29,4.76,11.3,4.76,18.02s-1.59,12.62-4.76,17.95c-3.17,5.33-7.58,9.49-13.2,12.47-5.63,2.98-11.96,4.47-18.98,4.47s-13.35-1.49-18.98-4.47ZM663.2,123.68c2.75,2.73,6.2,4.09,10.35,4.09s7.7-1.36,10.41-4.09c2.71-2.73,4.06-6.24,4.06-10.52s-1.35-7.79-4.06-10.52c-2.71-2.73-6.18-4.09-10.41-4.09s-7.6,1.37-10.35,4.09c-2.75,2.73-4.13,6.24-4.13,10.52s1.37,7.79,4.13,10.52Z" fill="#fff"/>
    <path d="M732.65,141.76c-4.53-4.11-6.79-10.29-6.79-18.52v-25.07h-11.04v-19.77h11.04v-13.61l22.6-2.27v15.87h15.74v19.77h-15.74v21.92c0,3.19.78,5.44,2.35,6.74,1.56,1.3,3.96,1.95,7.17,1.95,2.03,0,4.1-.13,6.22-.38v18.14c-4.82.92-9.06,1.39-12.69,1.39-8.04,0-14.33-2.06-18.85-6.17Z" fill="#fff"/>
    <path d="M786.47,143.59c-5.63-2.98-10.03-7.14-13.2-12.47-3.17-5.33-4.76-11.32-4.76-17.95s1.59-12.72,4.76-18.02c3.17-5.29,7.55-9.43,13.14-12.41,5.59-2.98,11.93-4.47,19.04-4.47s13.46,1.49,19.04,4.47c5.59,2.98,9.97,7.12,13.14,12.41,3.17,5.29,4.76,11.3,4.76,18.02s-1.59,12.62-4.76,17.95c-3.17,5.33-7.58,9.49-13.2,12.47-5.63,2.98-11.96,4.47-18.98,4.47s-13.35-1.49-18.98-4.47ZM795.11,123.68c2.75,2.73,6.2,4.09,10.35,4.09s7.7-1.36,10.41-4.09c2.71-2.73,4.06-6.24,4.06-10.52s-1.35-7.79-4.06-10.52c-2.71-2.73-6.18-4.09-10.41-4.09s-7.6,1.37-10.35,4.09c-2.75,2.73-4.13,6.24-4.13,10.52s1.37,7.79,4.13,10.52Z" fill="#fff"/>
    <path d="M846.79,79.27h20.57l.76,6.8c2.03-2.52,4.57-4.45,7.62-5.8,3.05-1.34,6.39-2.02,10.03-2.02,2.29,0,4.87.34,7.74,1.01v20.53c-2.88-.59-5.63-.88-8.25-.88-5.16,0-9.12,1.34-11.87,4.03-2.75,2.69-4.13,6.64-4.13,11.84v32.76h-22.47v-68.29Z" fill="#fff"/>
    <path d="M897.75,58.36h22.47v27.84c2.45-2.52,5.35-4.43,8.7-5.73,3.34-1.3,6.96-1.95,10.86-1.95,8.46,0,14.83,2.56,19.11,7.69,4.27,5.12,6.41,12.18,6.41,21.16v40.2h-22.6v-37.68c0-3.69-.89-6.53-2.67-8.5-1.78-1.97-4.32-2.96-7.62-2.96-3.72,0-6.69,1.05-8.89,3.15-2.2,2.1-3.3,5-3.3,8.69v37.3h-22.47V58.36Z" fill="#fff"/>
    <path d="M987.57,143.59c-5.63-2.98-10.03-7.14-13.2-12.47-3.17-5.33-4.76-11.32-4.76-17.95s1.59-12.72,4.76-18.02c3.17-5.29,7.55-9.43,13.14-12.41,5.59-2.98,11.93-4.47,19.04-4.47s13.46,1.49,19.04,4.47c5.59,2.98,9.97,7.12,13.14,12.41,3.17,5.29,4.76,11.3,4.76,18.02s-1.59,12.62-4.76,17.95c-3.17,5.33-7.58,9.49-13.2,12.47-5.63,2.98-11.96,4.47-18.98,4.47s-13.35-1.49-18.98-4.47ZM996.2,123.68c2.75,2.73,6.2,4.09,10.35,4.09s7.7-1.36,10.41-4.09c2.71-2.73,4.06-6.24,4.06-10.52s-1.35-7.79-4.06-10.52c-2.71-2.73-6.18-4.09-10.41-4.09s-7.6,1.37-10.35,4.09c-2.75,2.73-4.13,6.24-4.13,10.52s1.37,7.79,4.13,10.52Z" fill="#fff"/>
    <path d="M1047.8,79.78h20.69l.76,7.43c2.29-2.77,5.18-4.91,8.7-6.43,3.51-1.51,7.38-2.27,11.62-2.27,4.74,0,8.84.93,12.31,2.77,3.47,1.85,6.18,4.58,8.12,8.19,6.09-7.31,13.96-10.96,23.61-10.96,8.21,0,14.51,2.48,18.92,7.43,4.4,4.96,6.6,12.09,6.6,21.42v40.2h-22.47v-37.55c0-3.69-.89-6.55-2.67-8.57-1.78-2.02-4.27-3.02-7.49-3.02-3.64,0-6.52,1.05-8.63,3.15-2.12,2.1-3.17,4.91-3.17,8.44v37.55h-22.47v-37.55c0-3.69-.87-6.55-2.6-8.57-1.74-2.02-4.25-3.02-7.55-3.02-3.64,0-6.52,1.05-8.63,3.15-2.12,2.1-3.17,4.91-3.17,8.44v37.55h-22.47v-67.79Z" fill="#fff"/>
    <path d="M1181.11,143.59c-5.5-2.98-9.82-7.14-12.95-12.47-3.13-5.33-4.7-11.32-4.7-17.95s1.54-12.72,4.63-18.02c3.09-5.29,7.38-9.43,12.89-12.41,5.5-2.98,11.72-4.47,18.66-4.47s13.16,1.47,18.66,4.41c5.5,2.94,9.78,7.04,12.82,12.28,3.05,5.25,4.57,11.15,4.57,17.7,0,1.93-.21,4.24-.64,6.93h-49.39c.93,3.11,2.6,5.48,5.01,7.12,2.41,1.64,5.44,2.46,9.08,2.46,2.2,0,4.25-.36,6.16-1.07,1.91-.71,3.49-1.66,4.76-2.83h23.11c-2.37,7.05-6.62,12.62-12.76,16.69-6.14,4.07-13.27,6.11-21.39,6.11-6.86,0-13.04-1.49-18.54-4.47ZM1214.11,106.74c-.93-3.02-2.62-5.4-5.08-7.12-2.46-1.72-5.5-2.58-9.14-2.58s-6.56.84-9.01,2.52c-2.46,1.68-4.19,4.07-5.21,7.18h28.44Z" fill="#fff"/>
    <path d="M339.96,147.21h-22.47v-6.84c-2.45,2.52-5.35,4.43-8.7,5.73-3.34,1.3-6.96,1.95-10.86,1.95-8.46,0-14.83-2.56-19.11-7.69-4.27-5.12-6.41-12.18-6.41-21.16v-40.2h22.6v37.68c0,3.69.89,6.53,2.67,8.5,1.78,1.97,4.32,2.96,7.62,2.96,3.72,0,6.69-1.05,8.89-3.15,2.2-2.1,3.3-5,3.3-8.69v-37.3h22.47v68.2Z" fill="#f09b1b"/>
  </g>
  <g>
    <g clip-path="url(#clippath)">
      <rect x="12.46" y="58.24" width="179.41" height="44.91" fill="url(#Degradado_sin_nombre_3)"/>
    </g>
    <g clip-path="url(#clippath-1)">
      <polygon points="228.12 136.98 58.05 209.43 0 72.45 170.08 0 228.12 136.98" fill="url(#Degradado_sin_nombre_6)"/>
    </g>
    <g clip-path="url(#clippath-2)">
      <rect x="36.5" y="103.14" width="155.36" height="44.91" fill="url(#Degradado_sin_nombre_9)"/>
    </g>
    <g clip-path="url(#clippath-3)">
      <polygon points="234.61 174.4 88.34 256.64 15.02 125.55 161.29 43.31 234.61 174.4" fill="url(#Degradado_sin_nombre_8)"/>
    </g>
  </g>
</svg>